<svg width="132" height="150" viewBox="0 0 132 150" fill="none" xmlns="http://www.w3.org/2000/svg">
<g clip-path="url(#clip0_1419_2931)">
<path d="M95.1665 101.792C82.5787 101.792 72.3828 111.697 72.3828 123.925C72.3828 136.153 82.5787 146.057 95.1665 146.057C107.754 146.057 117.95 136.153 117.95 123.925C117.95 111.697 107.745 101.792 95.1665 101.792ZM107.191 116.828C104.873 119.08 101.77 120.569 98.3158 120.865C98.6298 117.51 100.154 114.496 102.472 112.244C105.51 109.292 110.229 113.877 107.191 116.828ZM98.5005 110.647C98.5005 113.832 97.3922 117.017 95.1665 119.6C92.9408 117.017 91.8325 113.832 91.8325 110.647C91.8325 106.466 98.5097 106.466 98.5097 110.647H98.5005ZM87.8613 112.244C90.1794 114.496 91.7125 117.51 92.0172 120.865C88.5632 120.56 85.4601 119.08 83.142 116.828C80.1036 113.877 84.8229 109.292 87.8613 112.244ZM81.4889 120.686C84.7675 120.686 88.0553 121.763 90.7243 123.925C88.0553 126.087 84.7767 127.172 81.4889 127.163C77.2037 127.163 77.2037 120.686 81.4889 120.677V120.686ZM83.142 131.021C85.4601 128.769 88.5632 127.28 92.0172 126.984C91.7032 130.339 90.1794 133.354 87.8613 135.606C84.8229 138.557 80.1036 133.973 83.142 131.021ZM91.8325 137.211C91.8325 134.027 92.9408 130.833 95.1665 128.24C97.3922 130.833 98.5097 134.018 98.5005 137.211C98.5005 141.374 91.8325 141.374 91.8233 137.211H91.8325ZM102.472 135.606C100.154 133.354 98.6205 130.339 98.3158 126.984C101.77 127.289 104.873 128.769 107.191 131.021C110.229 133.973 105.51 138.557 102.472 135.606ZM108.844 127.163C105.566 127.163 102.278 126.087 99.6087 123.925C102.278 121.763 105.556 120.677 108.844 120.686C113.129 120.686 113.129 127.163 108.844 127.172V127.163Z" fill="#FFA422"/>
</g>
<g clip-path="url(#clip1_1419_2931)">
<path d="M73.9711 68.9635C73.9211 69.085 73.871 69.2064 73.8296 69.3314C73.661 69.7897 73.5133 70.2464 73.3829 70.7102C73.3686 70.7449 73.3543 70.7796 73.34 70.8143C73.3129 70.9046 73.3032 71.0021 73.2725 71.1011C73.1672 71.5042 73.0705 71.9109 72.9861 72.3125C72.9457 72.509 72.9002 72.6932 72.8685 72.8933C72.7887 73.3576 72.7211 73.8169 72.6622 74.2798C72.632 74.5008 72.614 74.7166 72.6012 74.9448C72.5693 75.3173 72.5498 75.6847 72.5302 76.0522C72.5209 76.2716 72.5203 76.4947 72.5197 76.7177C72.5134 77.1515 72.5316 77.5751 72.5462 78.0074C72.5583 78.1748 72.5669 78.3508 72.5791 78.5182C72.6207 79.0327 72.6746 79.542 72.7494 80.0499C72.7606 80.1458 72.784 80.2367 72.7988 80.324C72.8822 80.8354 72.9815 81.333 73.0895 81.8342C73.1063 81.8919 73.1144 81.946 73.1312 82.0037C73.2683 82.5575 73.4176 83.1062 73.5913 83.6447C73.6082 83.7023 73.625 83.76 73.6505 83.8213C74.0169 84.9264 74.4655 86.0044 74.9948 87.0346C75.0152 87.0836 75.0443 87.1361 75.0647 87.1851C75.3242 87.688 75.6082 88.1806 75.9132 88.6717C75.9509 88.7278 75.9887 88.784 76.0177 88.8366C76.2937 89.2751 76.5854 89.6998 76.8929 90.1108C76.9394 90.1705 76.9822 90.2389 77.0286 90.2987C77.3362 90.7096 77.6682 91.1104 78.0039 91.5025C78.114 91.6291 78.2242 91.7558 78.338 91.8737C78.6445 92.2132 78.9633 92.5476 79.298 92.8683C79.4429 93.0092 79.5913 93.1415 79.7362 93.2824C80.002 93.5239 80.2764 93.769 80.5494 93.9932C80.7152 94.1326 80.881 94.272 81.059 94.4063C81.4289 94.6907 81.8024 94.9665 82.1967 95.2407C82.3646 95.3505 82.5325 95.4603 82.7003 95.5701C83.0534 95.7969 83.41 96.015 83.7789 96.2279C83.8621 96.2724 83.933 96.3219 84.0126 96.375C84.0473 96.3893 84.082 96.4036 84.1167 96.4179C84.2345 96.4767 84.3524 96.5354 84.4703 96.5942C84.7024 96.7203 84.9468 96.8414 85.1825 96.9589C85.3785 97.0498 85.5693 97.1285 85.7653 97.2194C85.9474 97.2945 86.1224 97.387 86.3046 97.4621C86.4867 97.5372 86.6725 97.6036 86.8582 97.6701C87.0577 97.7523 87.2572 97.8346 87.4552 97.8959C87.7053 97.9787 87.964 98.0651 88.2176 98.1392C88.3426 98.1806 88.4676 98.222 88.5927 98.2634C88.6273 98.2777 88.662 98.292 88.6967 98.3063C88.7871 98.3334 88.8723 98.3482 88.9662 98.3666C89.378 98.4755 89.7847 98.5722 90.195 98.6601C90.3914 98.7005 90.5879 98.7409 90.7844 98.7814C91.2452 98.8699 91.7132 98.941 92.1796 98.9912C92.3919 99.0179 92.6164 99.0394 92.8323 99.0574C93.1926 99.0943 93.5514 99.1103 93.9101 99.1262C94.1087 99.137 94.3108 99.1392 94.5129 99.1413C94.9763 99.1497 95.4295 99.1336 95.8949 99.1123C96.0623 99.1002 96.2261 99.0967 96.3935 99.0845C96.908 99.0429 97.426 98.9926 97.9339 98.9178C98.0089 98.9081 98.0875 98.8898 98.1625 98.8801C98.6739 98.7967 99.1803 98.701 99.6815 98.593C99.7478 98.5797 99.8142 98.5665 99.8719 98.5497C100.422 98.4213 100.974 98.2634 101.522 98.0932C101.579 98.0764 101.628 98.056 101.677 98.0356C102.779 97.6778 103.857 97.2292 104.896 96.7035C104.948 96.6744 105.001 96.6453 105.062 96.6199C105.565 96.3603 106.066 96.0799 106.545 95.78C106.598 95.7509 106.641 95.7183 106.694 95.6892C107.129 95.422 107.554 95.1303 107.965 94.8227C108.037 94.7712 108.121 94.7146 108.193 94.6631C108.604 94.3555 109.001 94.0321 109.393 93.6965C109.52 93.5863 109.65 93.4675 109.777 93.3573C110.097 93.0732 110.403 92.7732 110.704 92.461C110.861 92.3024 111.009 92.1401 111.166 91.9815C111.42 91.7106 111.656 91.4326 111.896 91.1459C112.036 90.9801 112.178 90.8056 112.321 90.6311C112.615 90.2648 112.89 89.8914 113.152 89.5021C113.259 89.3429 113.368 89.175 113.478 89.0072C113.701 88.6628 113.919 88.3062 114.129 87.9459C114.173 87.8628 114.235 87.7868 114.283 87.6949C114.297 87.6602 114.312 87.6255 114.326 87.5908C114.56 87.1699 114.778 86.7418 114.981 86.2979C115.031 86.1765 115.081 86.055 115.14 85.9372C115.226 85.729 115.325 85.5366 115.411 85.3284C115.468 85.1896 115.513 85.0559 115.57 84.9172C115.635 84.761 115.696 84.6135 115.751 84.4538C115.877 84.0997 115.999 83.7543 116.104 83.4016C116.142 83.2853 116.18 83.169 116.221 83.0439C116.355 82.5714 116.477 82.104 116.586 81.6417C116.608 81.5391 116.626 81.4452 116.648 81.3426C116.722 80.967 116.796 80.5915 116.857 80.221C116.88 80.0679 116.902 79.9148 116.92 79.7494C116.967 79.4136 117.002 79.0829 117.028 78.7487C117.038 78.6007 117.061 78.4476 117.062 78.296C117.091 77.8816 117.111 77.4637 117.11 77.0472C117.114 76.988 117.115 76.9375 117.119 76.8783C117.118 76.4618 117.105 76.0505 117.092 75.6391C116.969 73.3047 117.018 70.9704 117.244 68.6484C117.558 65.8447 118.159 63.0579 119.053 60.3718C123.054 48.3304 116.943 41.4164 110.506 38.7627C104.07 36.109 94.8706 36.7106 89.2132 48.069C87.9545 50.6049 86.429 53.0003 84.6632 55.2154C83.191 57.0138 81.577 58.713 79.8442 60.2821C79.5363 60.5611 79.2371 60.8437 78.9517 61.1421C78.9129 61.187 78.8776 61.2232 78.8388 61.2681C78.5534 61.5665 78.2644 61.8736 77.9927 62.1879C77.8957 62.3001 77.7987 62.4124 77.6981 62.5333C77.4811 62.7889 77.2728 63.048 77.0695 63.3194C76.9776 63.4439 76.877 63.5648 76.7815 63.698C76.5553 64.0005 76.3428 64.3189 76.139 64.6408C76.0823 64.7291 76.0206 64.8051 75.9725 64.8969C75.7157 65.2985 75.469 65.7245 75.2432 66.149C75.188 66.2582 75.1329 66.3674 75.0741 66.4853C74.8999 66.8093 74.7395 67.1491 74.5827 67.4802C74.5183 67.6364 74.4488 67.7803 74.3845 67.9364C74.3272 68.0752 74.2649 68.2017 74.2077 68.3405C74.1219 68.5487 74.0447 68.7605 73.9711 68.9635ZM98.7358 67.3605C103.975 69.5207 106.468 75.5113 104.308 80.7506C102.148 85.9899 96.157 88.4828 90.9177 86.3227C85.6783 84.1625 83.1854 78.1719 85.3456 72.9326C87.5058 67.6933 93.4964 65.2004 98.7358 67.3605Z" fill="#5FE089"/>
</g>
<g clip-path="url(#clip2_1419_2931)">
<path d="M18.2473 119.338C20.0853 123.117 21.3979 127.185 21.819 131.501C21.8804 132.084 21.908 132.409 21.908 132.409C21.908 132.409 22.2995 132.375 23.0003 132.287C27.2359 131.801 31.4224 132.184 35.4436 133.16C46.1791 135.754 58.4934 131.65 66.5066 121.751C74.5197 111.851 75.9736 98.9447 71.1859 88.9732C69.4179 85.288 68.1946 81.3042 67.786 77.1074C67.7124 76.3449 67.6678 75.9209 67.6678 75.9209C67.6678 75.9209 67.363 75.953 66.7933 76.013C62.4769 76.4944 58.2186 76.0654 54.1329 75.049C43.3464 72.3537 30.9247 76.4551 22.8642 86.4134C14.8036 96.3717 13.3832 109.341 18.2459 119.325L18.2473 119.338ZM57.6559 113.969C58.9374 115.006 59.1355 116.887 58.0983 118.169C57.0611 119.45 55.1797 119.648 53.8983 118.611C52.6169 117.574 52.4187 115.692 53.4559 114.411C54.4932 113.13 56.3745 112.931 57.6559 113.969ZM45.1842 119.884C46.4656 120.921 46.6637 122.802 45.6265 124.084C44.5893 125.365 42.7079 125.563 41.4265 124.526C40.1451 123.489 39.947 121.608 40.9842 120.326C42.0214 119.045 43.9028 118.847 45.1842 119.884ZM45.1944 110.378C46.4758 111.415 46.674 113.297 45.6368 114.578C44.5996 115.86 42.7182 116.058 41.4368 115.02C40.1554 113.983 39.9572 112.102 40.9944 110.821C42.0316 109.539 43.913 109.341 45.1944 110.378Z" fill="#DAAE4C"/>
</g>
<g clip-path="url(#clip3_1419_2931)">
<path d="M72.7564 37.2786C72.8937 36.5603 72.9831 35.8137 73.0011 35.0505C73.1719 28.5656 68.5089 22.8011 62.1347 21.6067C54.5246 20.1785 47.3865 25.4437 46.4058 33.0086C46.3739 33.2548 46.342 33.5009 46.3318 33.7499C46.1322 36.4254 45.2168 39.0009 43.4997 41.0601C41.1836 43.822 39.6783 47.3147 39.3707 51.2202C38.6721 60.2425 44.9534 68.5133 53.8406 70.2543C64.1498 72.268 73.8605 65.1576 75.1903 54.8996C75.6521 51.3379 75.0385 47.8944 73.6045 44.8746C72.4826 42.5135 72.2539 39.8486 72.7564 37.2786Z" fill="#FFA081"/>
<path d="M61.9814 16.7142C62.2829 8.99491 56.9902 2.12563 49.4492 0.44873C49.1468 8.17528 54.4404 15.0373 61.9814 16.7142Z" fill="#FFA081"/>
</g>
<defs>
<clipPath id="clip0_1419_2931">
<rect width="45.5674" height="44.2654" fill="white" transform="translate(72.3828 101.792)"/>
</clipPath>
<clipPath id="clip1_1419_2931">
<rect width="44.6055" height="63.4553" fill="white" transform="matrix(-0.924505 -0.381169 0.381173 -0.924504 106.945 105.962)"/>
</clipPath>
<clipPath id="clip2_1419_2931">
<rect width="56.1455" height="72.6877" fill="white" transform="matrix(-0.777284 -0.62915 0.629155 -0.77728 43.6406 150)"/>
</clipPath>
<clipPath id="clip3_1419_2931">
<rect width="36.0173" height="68.6985" fill="white" transform="translate(45.9883) rotate(7.38659)"/>
</clipPath>
</defs>
</svg>
